<svg width="28" height="28" viewBox="0 0 28 28" fill="none" xmlns="http://www.w3.org/2000/svg"><path fill-rule="evenodd" clip-rule="evenodd" d="M15.8838 4.11612C16.3719 4.60427 16.3719 5.39573 15.8838 5.88388L10.0972 12.7063C9.5732 13.3241 9.3112 13.633 9.3112 14C9.3112 14.367 9.5732 14.6759 10.0972 15.2937L15.8838 22.1161C16.3719 22.6043 16.3719 23.3957 15.8838 23.8839C15.3956 24.372 14.6042 24.372 14.116 23.8839L7.06055 16.8284C5.72721 15.4951 5.06055 14.8284 5.06055 14C5.06055 13.1716 5.72721 12.5049 7.06054 11.1716L14.116 4.11612C14.6042 3.62796 15.3956 3.62796 15.8838 4.11612Z" fill="currentColor"></path></svg>