<svg width="28" height="28" viewBox="0 0 28 28" fill="none" xmlns="http://www.w3.org/2000/svg"><path fill-rule="evenodd" clip-rule="evenodd" d="M2.35162 11.6596C2 12.4419 2 13.3897 2 15.2852V19.4852C2 21.869 2 23.0608 2.48717 23.9554C2.9099 24.7316 3.60434 25.3652 4.41593 25.7152C5.35124 26.1186 6.51787 26.0115 8.85115 25.7974C10.6194 25.6351 12.4574 25.4502 14 25.26C16.0412 25.0083 18.5435 24.6221 20.7339 24.2635C22.5732 23.9624 23.4929 23.8119 24.2082 23.3382C24.831 22.9259 25.3419 22.3246 25.6482 21.6434C26 20.8609 26 19.9126 26 18.0159V13.815C26 11.4326 26 10.2414 25.5131 9.34706C25.0906 8.5711 24.3962 7.93733 23.5851 7.58723C22.6501 7.18369 21.4843 7.29024 19.1527 7.50332C17.3833 7.66503 15.5438 7.84961 14 8.03996C11.9577 8.29178 9.45379 8.67902 7.26252 9.03872C5.42466 9.34041 4.50574 9.49126 3.79077 9.96494C3.16836 10.3773 2.65771 10.9786 2.35162 11.6596ZM7 19.5C8.10457 19.5 9 18.6045 9 17.5C9 16.3954 8.10457 15.5 7 15.5C5.89543 15.5 5 16.3954 5 17.5C5 18.6045 5.89543 19.5 7 19.5Z" fill="currentColor"></path><path d="M3.00732 6.98501C3.47438 6.7761 3.94025 6.63426 4.39061 6.52378C5.05473 6.36087 5.84447 6.2313 6.68339 6.09366L6.77634 6.07841C8.97896 5.71684 11.5299 5.32184 13.6327 5.06257C15.222 4.8666 17.0973 4.67871 18.8795 4.51583L18.9903 4.5057C20.0607 4.40778 21.0478 4.31749 21.8803 4.31413C22.7829 4.31048 23.7726 4.40085 24.7736 4.83288C24.9125 4.8928 25.0492 4.9573 25.1836 5.02616C24.8945 4.64696 24.538 4.31661 24.14 4.0645C23.3999 3.59573 22.4601 3.46964 20.5806 3.21744C18.5672 2.94729 16.3296 2.67291 14.4997 2.51434C13.0021 2.38459 11.2204 2.2841 9.51188 2.20783C7.29754 2.10897 6.19038 2.05954 5.29588 2.48066C4.52273 2.84465 3.85837 3.48001 3.46026 4.23615C3.11724 4.88766 3.02968 5.6835 3.00732 6.98501Z" fill="currentColor"></path></svg>