<svg width="24" height="24" viewBox="0 0 24 24" fill="none" xmlns="http://www.w3.org/2000/svg"><path d="M7 19.6638C7 19.1501 6.60928 18.728 6.10069 18.6553C5.23321 18.5313 4.63647 18.3356 3.96247 17.7824C3.71729 17.5812 3.35036 17.1764 3.17414 16.9127C2.5 15.9038 2.5 14.9399 2.5 13.0123V8.98775C2.5 7.06007 2.5 6.09623 3.17414 5.08732C3.35036 4.8236 3.71729 4.41877 3.96247 4.21756C4.90046 3.4478 5.68883 3.37017 7.26557 3.21491C8.55383 3.08806 10.1238 3 12 3C13.8762 3 15.4462 3.08806 16.7344 3.21491C18.3112 3.37017 19.0995 3.4478 20.0375 4.21756C20.2827 4.41877 20.6496 4.8236 20.8259 5.08732C21.5 6.09623 21.5 7.06007 21.5 8.98775V13.0123C21.5 14.9399 21.5 15.9038 20.8259 16.9127C20.6496 17.1764 20.2827 17.5812 20.0375 17.7824C19.0995 18.5522 18.3112 18.6298 16.7344 18.7851C16.1192 18.8457 15.4398 18.8974 14.6934 18.9349C13.8078 18.9794 12.9529 19.2882 12.2647 19.8474L9.40671 22.1696C9.14361 22.3833 8.81496 22.5 8.47597 22.5C7.66081 22.5 7 21.8392 7 21.024V19.6638Z" fill="currentColor"></path></svg>