<svg width="28" height="28" viewBox="0 0 28 28" fill="none" xmlns="http://www.w3.org/2000/svg"><path fill-rule="evenodd" clip-rule="evenodd" d="M22.3839 5.61612C21.8957 5.12796 21.1043 5.12796 20.6161 5.61612L15.3291 10.318C14.6966 10.8805 14.3803 11.1618 14 11.1618C13.6197 11.1618 13.3034 10.8805 12.6709 10.318L7.38388 5.61612C6.89573 5.12796 6.10427 5.12796 5.61612 5.61612C5.12796 6.10427 5.12796 6.89573 5.61612 7.38388L10.318 12.6709C10.8805 13.3034 11.1618 13.6197 11.1618 14C11.1618 14.3803 10.8805 14.6966 10.318 15.3291L5.61612 20.6161C5.12796 21.1043 5.12796 21.8957 5.61612 22.3839C6.10427 22.872 6.89573 22.872 7.38388 22.3839L12.6709 17.682C13.3034 17.1195 13.6197 16.8382 14 16.8382C14.3803 16.8382 14.6966 17.1195 15.3291 17.682L20.6161 22.3839C21.1043 22.872 21.8957 22.872 22.3839 22.3839C22.872 21.8957 22.872 21.1043 22.3839 20.6161L17.682 15.3291C17.1195 14.6966 16.8382 14.3803 16.8382 14C16.8382 13.6197 17.1195 13.3034 17.682 12.6709L22.3839 7.38388C22.872 6.89573 22.872 6.10427 22.3839 5.61612Z" fill="currentColor"></path></svg>