<svg width="28" height="28" viewBox="0 0 28 28" fill="none" xmlns="http://www.w3.org/2000/svg"><path fill-rule="evenodd" clip-rule="evenodd" d="M17.0607 3.93939L17.5 3.50004C19.433 1.56705 22.567 1.56704 24.5 3.50004C26.433 5.43304 26.433 8.56704 24.5 10.5L24.0607 10.9394L17.0607 3.93939ZM14.9393 6.06071L7.1704 13.8297C5.80378 15.1963 5.12047 15.8796 4.56162 16.6509C4.06545 17.3358 3.64306 18.0712 3.3015 18.8449C2.9168 19.7162 2.67088 20.6508 2.17902 22.5198L2.04708 23.0212C1.703 24.3287 1.53096 24.9825 1.70563 25.4351C1.85802 25.8299 2.17012 26.142 2.56498 26.2944C3.0176 26.4691 3.67135 26.2971 4.97884 25.953L5.48022 25.821C7.34928 25.3292 8.28381 25.0833 9.15519 24.6986C9.92886 24.357 10.6642 23.9346 11.3491 23.4384C12.1205 22.8796 12.8038 22.1963 14.1704 20.8297L21.9393 13.0607L14.9393 6.06071Z" fill="currentColor"></path></svg>