<svg width="28" height="28" viewBox="0 0 28 28" fill="none" xmlns="http://www.w3.org/2000/svg"><g clip-path="url(#clip0)"><path d="M25.1184 9.90098L15.6396 1.03372C15.0621 0.493467 14.7733 0.223339 14.4445 0.121319C14.155 0.0315004 13.8451 0.0315004 13.5555 0.121319C13.2267 0.223339 12.938 0.493467 12.3604 1.03372L2.88165 9.90098C1.54684 11.1497 0.879441 11.774 0.811156 12.3105C0.746328 12.8199 0.946561 13.3271 1.34189 13.6548C1.75829 13.9999 2.6722 13.9999 4.50002 13.9999V21.1999C4.50002 22.8801 4.50002 23.7202 4.827 24.3619C5.11462 24.9264 5.57356 25.3853 6.13805 25.6729C6.77978 25.9999 7.63097 25.9999 9.33335 25.9999C10.1845 25.9999 10.6101 25.9999 10.931 25.8364C11.2132 25.6926 11.4427 25.4632 11.5865 25.1809C11.75 24.86 11.75 24.44 11.75 23.5999V18.2499C11.75 17.0073 12.7574 15.9999 14 15.9999C15.2427 15.9999 16.25 17.0073 16.25 18.2499V23.5999C16.25 24.44 16.25 24.86 16.4135 25.1809C16.5573 25.4632 16.7868 25.6926 17.069 25.8364C17.3899 25.9999 17.8155 25.9999 18.6667 25.9999C20.3691 25.9999 21.2203 25.9999 21.862 25.6729C22.4265 25.3853 22.8854 24.9264 23.173 24.3619C23.5 23.7202 23.5 22.8801 23.5 21.1999V13.9999C25.3278 13.9999 26.2417 13.9999 26.6581 13.6548C27.0535 13.3271 27.2537 12.8199 27.1889 12.3105C27.1206 11.774 26.4532 11.1497 25.1184 9.90098Z" fill="currentColor"></path></g><defs><clipPath id="clip0"><rect width="28" height="28" fill="white"></rect></clipPath></defs></svg>