<svg width="28" height="28" viewBox="0 0 28 28" fill="none" xmlns="http://www.w3.org/2000/svg"><path d="M7 20.753C7 17.9921 8.49653 15.4482 10.9097 14.107L11.3559 13.859C11.6337 13.7046 11.7726 13.6274 11.9053 13.5588C14.787 12.068 18.213 12.068 21.0947 13.5588C21.2274 13.6274 21.3663 13.7046 21.6441 13.859L22.0903 14.107C24.5035 15.4482 26 17.9921 26 20.753C26 22.0893 25.0713 23.2409 23.7498 23.4395C21.9964 23.7031 19.3818 24 16.5 24C13.6182 24 11.0036 23.7031 9.25019 23.4395C7.92873 23.2409 7 22.0893 7 20.753Z" fill="currentColor"></path><path d="M20.5 6.5C20.5 8.70914 18.7091 10.5 16.5 10.5C14.2909 10.5 12.5 8.70914 12.5 6.5C12.5 4.29086 14.2909 2.5 16.5 2.5C18.7091 2.5 20.5 4.29086 20.5 6.5Z" fill="currentColor"></path><path d="M6 5C5.44772 5 5 5.44772 5 6C5 6.33434 4.90838 7.27168 4.83607 7.95942C4.78737 8.42262 4.42262 8.78737 3.95942 8.83607C3.27168 8.90838 2.33434 9 2 9C1.44772 9 1 9.44772 1 10C1 10.5523 1.44772 11 2 11C2.33434 11 3.27168 11.0916 3.95942 11.1639C4.42262 11.2126 4.78737 11.5774 4.83607 12.0406C4.90838 12.7283 5 13.6657 5 14C5 14.5523 5.44772 15 6 15C6.55228 15 7 14.5523 7 14C7 13.6657 7.09162 12.7283 7.16393 12.0406C7.21263 11.5774 7.57738 11.2126 8.04058 11.1639C8.72832 11.0916 9.66566 11 10 11C10.5523 11 11 10.5523 11 10C11 9.44772 10.5523 9 10 9C9.66566 9 8.72832 8.90838 8.04058 8.83607C7.57738 8.78737 7.21263 8.42262 7.16393 7.95942C7.09162 7.27168 7 6.33434 7 6C7 5.44772 6.55228 5 6 5Z" fill="currentColor"></path></svg>