<svg width="28" height="28" viewBox="0 0 28 28" fill="none" xmlns="http://www.w3.org/2000/svg"><path d="M12.5 7C12.5 8.933 10.933 10.5 9 10.5C7.067 10.5 5.5 8.933 5.5 7C5.5 5.067 7.067 3.5 9 3.5C10.933 3.5 12.5 5.067 12.5 7Z" fill="currentColor"></path><path d="M20.6189 23.0097C19.8148 23.0508 19.3421 21.9936 19.6252 21.2399C19.8677 20.5945 19.9999 19.8521 20 19.0002C20.0001 17.7094 19.6295 16.4724 18.962 15.3912C18.1746 14.1161 17.7809 13.4785 17.8722 13.079C17.9247 12.8492 18.0455 12.6591 18.2312 12.5139C18.554 12.2615 19.036 12.3168 20 12.4274C21.3929 12.5872 22.7557 13.0819 23.9624 13.9115C25.864 15.2188 27 17.3785 27 19.686V19.8876C27 21.1353 26.1685 22.2424 24.9441 22.4823C23.5309 22.7593 22.08 22.9351 20.6189 23.0097Z" fill="currentColor"></path><path d="M4.53755 13.9117C2.63604 15.219 1.5 17.3786 1.5 19.6862V19.8878C1.5 21.1354 2.33536 22.225 3.56309 22.447C5.03596 22.7134 7.16374 23 9.5 23C11.8363 23 13.964 22.7134 15.4369 22.447C16.6646 22.225 17.5 21.1354 17.5 19.8878V19.6862C17.5 17.3786 16.364 15.219 14.4624 13.9117C11.4733 11.8566 7.52671 11.8566 4.53755 13.9117Z" fill="currentColor"></path><path d="M19 10.5C20.933 10.5 22.5 8.933 22.5 7C22.5 5.067 20.933 3.5 19 3.5C17.067 3.5 15.5 5.067 15.5 7C15.5 8.933 17.067 10.5 19 10.5Z" fill="currentColor"></path></svg>