<svg width="28" height="28" viewBox="0 0 28 28" fill="none" xmlns="http://www.w3.org/2000/svg"><path fill-rule="evenodd" clip-rule="evenodd" d="M3 9.4C3 7.15979 3 6.03969 3.43597 5.18404C3.81947 4.43139 4.43139 3.81947 5.18404 3.43597C6.03969 3 7.15979 3 9.4 3H18.6C20.8402 3 21.9603 3 22.816 3.43597C23.5686 3.81947 24.1805 4.43139 24.564 5.18404C25 6.03969 25 7.15979 25 9.4V19.2533C25 21.0727 25 21.9824 24.6143 22.7958C24.2985 23.4618 23.6818 24.1401 23.0487 24.5176C22.2755 24.9787 21.4521 25.0572 19.8053 25.214C18.1122 25.3753 16.1185 25.5 14 25.5C11.8815 25.5 9.88776 25.3753 8.19469 25.214C6.54787 25.0572 5.72446 24.9787 4.95126 24.5176C4.31817 24.1401 3.70148 23.4618 3.38568 22.7958C3 21.9824 3 21.0727 3 19.2533V9.4ZM9.81513 13.9912L8.8214 15.1656C7.95105 16.1942 7.51587 16.7085 7.13629 16.7607C6.80754 16.8059 6.47775 16.6851 6.256 16.4383C5.99998 16.1532 5.99998 15.4795 5.99998 14.1321V9.2C5.99998 8.0799 5.99998 7.51984 6.21796 7.09202C6.40971 6.71569 6.71567 6.40973 7.092 6.21799C7.51982 6 8.07987 6 9.19998 6H18.8C19.9201 6 20.4801 6 20.908 6.21799C21.2843 6.40973 21.5902 6.71569 21.782 7.09202C22 7.51984 22 8.0799 22 9.2V14.4675C22 15.4296 22 15.9106 21.8721 16.1385C21.6257 16.5776 21.0913 16.7651 20.6246 16.5761C20.3824 16.478 20.0819 16.1024 19.4809 15.3511L19.1654 14.9568L19.1654 14.9568C19.0566 14.8208 19.0022 14.7528 18.9525 14.7015C18.4081 14.1401 17.5236 14.0911 16.9205 14.589C16.8654 14.6345 16.8039 14.6961 16.6807 14.8192C16.5692 14.9308 16.5134 14.9865 16.4622 15.0294C15.9052 15.4951 15.0947 15.4951 14.5377 15.0294C14.4865 14.9865 14.4307 14.9308 14.3192 14.8192L13.3443 13.8444L13.3443 13.8444C12.7041 13.2042 12.384 12.8841 12.0198 12.7757C11.6999 12.6805 11.3573 12.6947 11.0463 12.8162C10.6924 12.9544 10.4 13.3 9.81514 13.9912L9.81513 13.9912ZM18 12C19.1046 12 20 11.1046 20 10C20 8.89543 19.1046 8 18 8C16.8954 8 16 8.89543 16 10C16 11.1046 16.8954 12 18 12Z" fill="currentColor"></path></svg>