<svg width="24" height="24" viewBox="0 0 24 24" fill="none" xmlns="http://www.w3.org/2000/svg"><path d="M7.5 4.25C4.5 4.25 2.5 6.5 2.5 9.75C2.5 14.9049 6.70299 18.0689 9.51776 19.6098C10.4904 20.1423 10.9767 20.4086 12 20.4086C13.0233 20.4086 13.5096 20.1423 14.4822 19.6098C17.297 18.0689 21.5 14.9049 21.5 9.75C21.5 6.5 19.5 4.25 16.5 4.25C14.5065 4.25 13.2655 5.28465 12.6039 6.08468C12.2797 6.47662 12.1177 6.67259 12 6.67259C11.8823 6.67259 11.7203 6.47662 11.3961 6.08468C10.7345 5.28465 9.49349 4.25 7.5 4.25Z" fill="currentColor"></path></svg>