<svg width="28" height="28" viewBox="0 0 28 28" fill="none" xmlns="http://www.w3.org/2000/svg"><g clip-path="url(#clip0)"><path fill-rule="evenodd" clip-rule="evenodd" d="M5.1875 16.2358L4.8344 18.6866C4.66109 19.8894 4.57444 20.4908 4.7735 20.9033C4.94751 21.2639 5.25843 21.54 5.63707 21.67C6.07024 21.8188 6.65717 21.6616 7.83103 21.347L23.016 17.2783C24.1898 16.9637 24.7768 16.8065 25.0775 16.461C25.3404 16.159 25.4716 15.7645 25.442 15.3652C25.4082 14.9085 25.0324 14.4309 24.2809 13.4759L22.7497 11.53C22.5845 11.32 22.5018 11.215 22.4246 11.1074C22.0546 10.5919 21.7687 10.0209 21.5775 9.41578C21.5377 9.28952 21.5031 9.16045 21.4339 8.90232C20.0104 3.58973 15.5944 0.631882 10.7648 1.92598C5.93516 3.22007 3.58967 7.98965 5.01317 13.3022C5.08234 13.5604 5.11693 13.6894 5.14552 13.8187C5.28256 14.4383 5.32044 15.0758 5.25774 15.7073C5.24466 15.839 5.22561 15.9713 5.1875 16.2358ZM10.4044 23.7633L18.1318 21.6928C18.1318 21.6928 18.2012 25.8153 14.8205 26.7212C11.4397 27.627 10.4044 23.7633 10.4044 23.7633Z" fill="currentColor"></path></g><defs><clipPath id="clip0"><rect width="28" height="28" fill="white"></rect></clipPath></defs></svg>