<svg width="28" height="28" viewBox="0 0 28 28" fill="none" xmlns="http://www.w3.org/2000/svg"><path fill-rule="evenodd" clip-rule="evenodd" d="M4.5 5C3.67157 5 3 5.67157 3 6.5C3 7.32843 3.67157 8 4.5 8H23.5C24.3284 8 25 7.32843 25 6.5C25 5.67157 24.3284 5 23.5 5H4.5ZM3 14C3 13.1716 3.67157 12.5 4.5 12.5H23.5C24.3284 12.5 25 13.1716 25 14C25 14.8284 24.3284 15.5 23.5 15.5H4.5C3.67157 15.5 3 14.8284 3 14ZM3 21.5C3 20.6716 3.67157 20 4.5 20H23.5C24.3284 20 25 20.6716 25 21.5C25 22.3284 24.3284 23 23.5 23H4.5C3.67157 23 3 22.3284 3 21.5Z" fill="currentColor"></path></svg>