<svg width="24" height="24" viewBox="0 0 24 24" fill="none" xmlns="http://www.w3.org/2000/svg"><path d="M14.9498 3.10561C18.2064 5.38443 20.4206 7.66533 21.7098 9.18515C22.2538 9.82644 22.5258 10.1471 22.6068 10.7195C22.628 10.8693 22.628 11.1306 22.6068 11.2804C22.5258 11.8528 22.2538 12.1735 21.7098 12.8148C20.4206 14.3346 18.2064 16.6155 14.9499 18.8943C14.04 19.531 13.5851 19.8493 13.1276 19.8577C12.6424 19.8667 12.1262 19.5979 11.8553 19.1952C11.6 18.8156 11.6 18.2246 11.6 17.0428C11.5999 16.5305 11.5999 16.2743 11.5113 16.0781C11.4118 15.8576 11.2387 15.6831 11.019 15.5817C10.8236 15.4914 10.568 15.4893 10.0568 15.4851C7.25066 15.4617 4.83711 15.6432 2.76124 19.0507C2.59471 19.3241 2.30149 19.5 1.9814 19.5C1.49461 19.5 1.09815 19.1024 1.11554 18.6159C1.43162 9.77196 6.49875 7.16254 10.0642 6.61922C10.6504 6.5299 10.9434 6.48524 11.1111 6.38552C11.3191 6.26184 11.4357 6.12612 11.5266 5.90191C11.5999 5.72113 11.5999 5.46644 11.5999 4.95708C11.5999 3.7753 11.5999 3.1844 11.8553 2.80476C12.1262 2.40205 12.6424 2.13323 13.1276 2.14218C13.5851 2.15063 14.04 2.46896 14.9498 3.10561Z" fill="currentColor"></path></svg>