<svg width="28" height="28" viewBox="0 0 28 28" fill="none" xmlns="http://www.w3.org/2000/svg"><path fill-rule="evenodd" clip-rule="evenodd" d="M21.2711 18.0515C20.8318 17.5575 20.7785 16.8387 21.0592 16.2402C21.6627 14.9529 22 13.5158 22 12C22 6.47715 17.5228 2 12 2C6.47715 2 2 6.47715 2 12C2 17.5228 6.47715 22 12 22C13.5158 22 14.9529 21.6627 16.2402 21.0591C16.8388 20.7785 17.5576 20.8318 18.0515 21.2711L21.5858 24.4142C22.3668 25.1952 23.6332 25.1952 24.4142 24.4142C25.1953 23.6331 25.1953 22.3668 24.4142 21.5858L21.2711 18.0515ZM19 12C19 15.866 15.866 19 12 19C8.13401 19 5 15.866 5 12C5 8.13401 8.13401 5 12 5C15.866 5 19 8.13401 19 12Z" fill="currentColor"></path></svg>