<svg width="28" height="28" viewBox="0 0 28 28" fill="none" xmlns="http://www.w3.org/2000/svg"><path fill-rule="evenodd" clip-rule="evenodd" d="M11.9484 1.22105C11.8005 1.39879 11.6894 1.62094 11.4673 2.06525L10.3155 4.36891C10.3155 4.36892 10.3155 4.36892 10.3155 4.36892C10.3154 4.36892 10.3154 4.36893 10.3154 4.36893C10.3042 4.39147 10.293 4.41385 10.2819 4.43607C10.1691 4.66173 9.9786 4.83793 9.75028 4.94528C9.6948 4.97136 9.63959 4.99794 9.58467 5.02501C9.33828 5.14645 9.05877 5.18868 8.79052 5.12953L6.27536 4.57493C5.79027 4.46796 5.54772 4.41448 5.31655 4.41752C4.88158 4.42323 4.46033 4.5706 4.11666 4.8373C3.93402 4.97903 3.77772 5.17206 3.46511 5.55809L3.4651 5.5581C3.15249 5.94415 2.99618 6.13717 2.89552 6.34529C2.7061 6.73689 2.64953 7.17958 2.73438 7.60624C2.77947 7.83298 2.88221 8.05911 3.0877 8.51136L4.15311 10.8563C4.15781 10.8666 4.1625 10.8769 4.16717 10.8872C4.29375 11.1658 4.31583 11.4778 4.24806 11.7762C4.17954 12.078 4.02073 12.3565 3.78218 12.5536L3.78169 12.554L1.79617 14.1945C1.41323 14.5109 1.22176 14.6691 1.08183 14.8532C0.818534 15.1995 0.67532 15.6221 0.673897 16.0572C0.67314 16.2883 0.729012 16.5303 0.840755 17.0144C0.952499 17.4984 1.00837 17.7404 1.1104 17.9478C1.30237 18.3382 1.61638 18.6553 2.00483 18.8511C2.21127 18.9552 2.45271 19.0135 2.9356 19.13L5.43933 19.7341C5.72476 19.8029 5.97395 19.9734 6.15624 20.2036C6.17677 20.2295 6.19743 20.2554 6.21821 20.2811C6.39753 20.503 6.50505 20.776 6.50786 21.0613L6.53326 23.6368C6.53816 24.1335 6.54061 24.3818 6.59557 24.6064C6.69899 25.0289 6.93735 25.4062 7.27452 25.6811C7.4537 25.8272 7.67693 25.9361 8.12339 26.1538L8.12341 26.1538C8.56988 26.3716 8.79312 26.4805 9.01855 26.5317C9.44273 26.6282 9.8868 26.5837 10.2834 26.4051C10.4942 26.3102 10.6914 26.1592 11.0859 25.8572L13.131 24.2916C13.1371 24.2869 13.1433 24.2823 13.1494 24.2776C13.3925 24.0914 13.6936 24 13.9999 24C14.3062 24 14.6073 24.0914 14.8505 24.2776C14.8566 24.2823 14.8627 24.2869 14.8688 24.2916L14.8688 24.2916L16.914 25.8572C16.914 25.8572 16.914 25.8572 16.914 25.8572L16.914 25.8573L16.9141 25.8573C17.3084 26.1592 17.5056 26.3102 17.7164 26.4051C18.113 26.5837 18.5571 26.6282 18.9813 26.5317C19.2067 26.4805 19.43 26.3716 19.8764 26.1538C20.3229 25.9361 20.5461 25.8272 20.7253 25.6811C21.0625 25.4062 21.3009 25.0289 21.4043 24.6064C21.4592 24.3819 21.4617 24.1335 21.4666 23.6368V23.6368L21.492 21.0613C21.4948 20.776 21.6023 20.5029 21.7817 20.281C21.8024 20.2553 21.8231 20.2295 21.8436 20.2036C22.0259 19.9734 22.2751 19.8029 22.5605 19.7341L25.0642 19.13C25.5471 19.0135 25.7886 18.9552 25.995 18.8511C26.3835 18.6553 26.6975 18.3382 26.8894 17.9478C26.9915 17.7404 27.0473 17.4984 27.1591 17.0144L27.1591 17.0144C27.2708 16.5303 27.3267 16.2883 27.3259 16.0572C27.3245 15.6221 27.1813 15.1995 26.918 14.8532C26.7781 14.6691 26.5866 14.5109 26.2037 14.1945L24.2182 12.554C23.9796 12.3569 23.8203 12.0779 23.7518 11.7762C23.684 11.4778 23.7061 11.1658 23.8326 10.8873C23.8373 10.877 23.842 10.8666 23.8467 10.8563L24.9121 8.51137C25.1176 8.05912 25.2204 7.83299 25.2655 7.60624C25.3503 7.17959 25.2937 6.7369 25.1043 6.34529C25.0037 6.13718 24.8474 5.94415 24.5347 5.55811L24.5347 5.55809C24.2221 5.17206 24.0658 4.97904 23.8832 4.83731C23.5395 4.57061 23.1183 4.42324 22.6833 4.41752C22.4521 4.41449 22.2096 4.46797 21.7245 4.57493L19.2093 5.12954C18.9411 5.18869 18.6616 5.14646 18.4152 5.02502C18.379 5.00719 18.3427 4.98958 18.3063 4.97218C18.0421 4.84592 17.8208 4.6418 17.6899 4.37989L17.6889 4.37803L17.6876 4.37539L17.685 4.37025L17.6844 4.36893L17.6844 4.36892L16.5325 2.06525L16.5325 2.06524C16.3104 1.62094 16.1993 1.39879 16.0515 1.22105C15.7733 0.886612 15.3937 0.651985 14.9701 0.552742C14.745 0.5 14.4967 0.5 13.9999 0.5C13.5032 0.5 13.2548 0.5 13.0297 0.552742C12.6062 0.651985 12.2265 0.886612 11.9484 1.22105ZM13.9999 18C16.209 18 17.9999 16.2091 17.9999 14C17.9999 11.7909 16.209 10 13.9999 10C11.7908 10 9.99991 11.7909 9.99991 14C9.99991 16.2091 11.7908 18 13.9999 18Z" fill="currentColor"></path></svg>