<svg width="28" height="28" viewBox="0 0 28 28" fill="none" xmlns="http://www.w3.org/2000/svg">
    <path d="M14 28C21.732 28 28 21.732 28 14C28 6.26801 21.732 0 14 0C6.26801 0 0 6.26801 0 14C0 21.732 6.26801 28 14 28Z" fill="#0088CC"/>
    <path fill-rule="evenodd" clip-rule="evenodd" d="M10.1044 9.2522H17.9566C18.2344 9.2522 18.512 9.293 18.8021 9.42825C19.1499 9.5903 19.3343 9.84585 19.4635 10.0348C19.4735 10.0495 19.4829 10.0646 19.4916 10.0801C19.6435 10.3505 19.7218 10.6425 19.7218 10.9565C19.7218 11.2549 19.6508 11.58 19.4916 11.8634C19.4901 11.8661 19.4886 11.8688 19.487 11.8715L14.5261 20.3932C14.4167 20.5811 14.2154 20.6964 13.9979 20.6957C13.7805 20.6949 13.5799 20.5782 13.4719 20.3895L8.60206 11.8859C8.60066 11.8836 8.59926 11.8813 8.59786 11.879C8.48641 11.6953 8.31406 11.4113 8.28391 11.0448C8.25621 10.7078 8.33196 10.3701 8.50131 10.0773C8.67066 9.78445 8.92561 9.55035 9.23226 9.40705C9.56106 9.2534 9.89426 9.2522 10.1044 9.2522ZM13.3914 10.4696H10.1044C9.88846 10.4696 9.80556 10.4829 9.74761 10.51C9.66746 10.5474 9.60016 10.6089 9.55516 10.6867C9.51016 10.7646 9.48981 10.8548 9.49721 10.945C9.50146 10.9968 9.52256 11.056 9.64701 11.2613C9.64961 11.2656 9.65216 11.2699 9.65466 11.2743L13.3914 17.7992V10.4696ZM14.6088 10.4696V17.8315L18.432 11.2639C18.4752 11.1855 18.5044 11.0722 18.5044 10.9565C18.5044 10.8627 18.485 10.7812 18.4415 10.6971C18.3958 10.6315 18.368 10.5968 18.3448 10.573C18.3248 10.5526 18.3095 10.5417 18.2878 10.5316C18.1974 10.4895 18.1049 10.4696 17.9566 10.4696H14.6088Z" fill="white"/>
</svg>
